
o SU57
v -14.113525 85.618942 299.655884
v -21.032877 95.350212 307.710388
v -22.849083 95.645088 299.655884
v -74.997208 71.890152 8.652161
v -80.237869 85.758453 27.816101
v -85.597633 87.214401 5.560173
v -78.213051 72.087563 -4.029213
v -70.788795 58.841099 -13.028812
v 129.292801 161.016876 -298.188080
v 128.935928 159.661072 -291.191742
v 127.201508 155.290405 -285.824890
v 124.554321 149.075882 -283.525574
v 125.886269 154.135773 -309.636292
v 128.176559 158.994461 -304.939270
v 123.035606 147.742661 -311.020599
v 118.653992 137.157471 -303.354401
v 121.703651 142.682785 -284.909882
v 118.297104 135.801666 -296.358063
v 119.413345 137.824097 -289.606903
v 120.388405 141.528183 -308.721283
v 248.479584 86.811958 -201.548981
v 260.499298 86.779205 -216.944763
v 256.551941 86.830994 -207.636688
v 233.819458 86.613930 -237.757721
v 259.264038 86.670456 -226.979065
v 253.177063 86.533890 -235.050873
v 221.799713 86.646706 -222.361908
v 225.747070 86.594887 -231.670013
v 223.035004 86.755432 -212.327606
v 229.122040 86.891998 -204.255829
v 70.788475 58.841099 -13.028812
v 78.212746 72.087563 -4.029213
v 74.996887 71.890152 8.652161
v 85.597313 87.214401 5.560173
v 80.237549 85.758453 27.816101
v 21.032562 95.350212 307.710388
v 14.113209 85.618942 299.655884
v 22.848766 95.645088 299.655884
v 3.252233 79.282494 313.845642
v -0.000159 76.962883 299.631866
v 4.110982 77.811768 299.631866
v -0.000159 78.364517 313.845642
v -3.252552 79.282494 313.845642
v -4.111301 77.811768 299.631866
v 231.843399 93.816055 -219.691315
v 222.539459 94.134201 -223.636108
v 212.515350 94.886566 -222.398956
v -231.843674 93.816048 -219.690308
v -237.934326 93.724335 -211.620667
v -212.515640 94.886566 -222.397919
v -239.179764 93.883652 -201.588257
v -227.187912 94.728745 -186.193909
v -200.523773 95.731651 -207.003540
v -201.769226 95.890953 -196.971161
v -207.859940 95.799263 -188.901474
v -235.246307 94.251297 -192.281464
v -204.457214 95.364014 -216.310394
v 31.407381 97.676575 243.418976
v 23.649017 82.631180 223.203827
v 33.598671 98.567413 223.203827
v 25.366518 82.117920 202.199005
v 16.482897 74.783997 202.199005
v 14.864103 74.872826 223.203827
v 21.299793 83.514603 243.418976
v 13.255181 75.149200 243.418976
v 35.572811 99.519936 202.199005
v -16.378262 74.872238 202.187683
v -23.544382 82.719429 223.192505
v -25.261883 82.206169 202.187683
v -33.494041 98.655663 223.192505
v -31.302746 97.764824 243.407654
v -21.195156 83.602859 243.407654
v -14.759468 74.961075 223.192505
v -13.150546 75.237457 243.407654
v -35.468174 99.608185 202.187683
v -259.264587 86.566895 -226.977081
v -233.823929 86.085335 -237.754395
v -260.497101 86.806297 -216.944702
v -248.475739 86.875282 -201.550323
v -221.802490 86.154312 -222.359985
v -223.035034 86.393692 -212.327606
v -229.118973 86.695480 -204.257935
v -253.180756 86.265106 -235.046753
v -256.548157 86.919174 -207.637878
v -225.751495 86.041428 -231.666840
v 207.859619 95.799255 -188.902481
v 217.163452 95.481110 -184.957733
v 227.187592 94.728752 -186.194885
v -118.291580 135.801697 -296.351685
v -119.415695 137.824097 -289.601807
v -121.711464 142.682785 -284.907471
v -120.368484 141.528183 -308.717285
v -127.208260 155.290375 -285.828888
v -128.161072 158.994461 -304.944366
v -129.285172 161.016876 -298.194519
v -128.936432 159.661072 -291.197723
v -118.640327 137.157471 -303.348419
v -124.563744 149.075882 -283.526459
v -125.865280 154.135773 -309.638733
v -123.013000 147.742661 -311.019684
v 235.245987 94.251305 -192.282440
v 239.179459 93.883659 -201.589264
v 237.934036 93.724342 -211.621643
v 201.768906 95.890961 -196.972168
v 200.523499 95.731659 -207.004517
v 204.456924 95.364006 -216.311371
v 243.869324 86.406105 -238.997375
v -243.875717 85.981819 -238.991577
v 238.429703 87.019775 -200.309296
v -238.423920 86.978783 -200.313171
v -222.539749 94.134193 -223.635132
v -217.163773 95.481102 -184.956726
vn -0.7494 -0.6469 0.1411
vn -0.9761 0.0076 0.2171
vn -0.7461 -0.6509 0.1407
vn -0.8221 -0.5401 0.1803
vn -0.8939 -0.4038 0.1944
vn -0.8936 -0.4289 0.1322
vn -0.8277 -0.5466 0.1266
vn -0.8378 -0.5298 0.1320
vn 0.9154 -0.4014 -0.0311
vn 0.0028 -1.0000 0.0043
vn -0.0025 -0.9999 0.0111
vn 0.0096 -0.9999 0.0096
vn 0.0028 -1.0000 0.0044
vn -0.0073 -0.9997 0.0224
vn 0.0096 -0.9999 0.0097
vn -0.0073 -0.9997 0.0225
vn 0.8378 -0.5298 0.1320
vn 0.8277 -0.5466 0.1266
vn 0.8220 -0.5401 0.1803
vn 0.8936 -0.4289 0.1322
vn 0.8939 -0.4038 0.1944
vn 0.7461 -0.6500 0.1444
vn 0.7495 -0.6466 0.1418
vn 0.7461 -0.6509 0.1406
vn 0.2522 -0.9592 0.1281
vn -0.0233 -0.9941 0.1055
vn 0.2346 -0.9657 0.1113
vn -0.0000 -0.9927 0.1210
vn -0.2508 -0.9595 0.1281
vn -0.2231 -0.9685 0.1110
vn 0.0655 0.9951 -0.0743
vn -0.0600 0.9976 -0.0340
vn -0.0600 0.9976 -0.0339
vn -0.0500 0.9986 -0.0159
vn -0.0498 0.9986 -0.0157
vn -0.0499 0.9986 -0.0157
vn -0.0431 0.9988 -0.0212
vn -0.0499 0.9986 -0.0158
vn -0.0432 0.9988 -0.0212
vn -0.0499 0.9986 -0.0159
vn 0.8214 -0.5623 0.0952
vn 0.7824 -0.6178 0.0790
vn 0.8428 -0.5323 0.0799
vn 0.7853 -0.6158 0.0647
vn 0.4666 -0.8834 0.0424
vn 0.5073 -0.8598 0.0589
vn 0.7438 -0.6629 0.0849
vn 0.5844 -0.7768 0.2346
vn 0.8599 -0.5059 0.0676
vn -0.4666 -0.8834 0.0424
vn -0.7824 -0.6178 0.0790
vn -0.7891 -0.6109 0.0641
vn -0.8428 -0.5323 0.0799
vn -0.8214 -0.5623 0.0952
vn -0.7712 -0.6291 0.0975
vn -0.5073 -0.8598 0.0589
vn -0.5844 -0.7768 0.2346
vn -0.8609 -0.5044 0.0663
vn -0.0092 -0.9997 0.0228
vn -0.0147 -0.9998 0.0156
vn -0.0215 -0.9995 0.0212
vn -0.0146 -0.9998 0.0160
vn -0.0145 -0.9998 0.0161
vn -0.0093 -0.9997 0.0228
vn -0.0045 -0.9994 0.0340
vn -0.0214 -0.9995 0.0212
vn -0.9153 -0.4014 -0.0322
vn 0.0499 0.9986 -0.0157
vn 0.0431 0.9988 -0.0212
vn 0.0551 0.9982 -0.0224
vn 0.0600 0.9976 -0.0340
vn 0.0554 0.9982 -0.0229
vn -0.0129 -0.9979 0.0627
vn 0.0011 -0.9972 0.0743
vn -0.0655 0.9951 -0.0743
vt 0.643012 0.690965
vt 0.516927 0.691595
vt 0.546347 0.634437
vt 0.841511 0.778261
vt 0.956752 0.803755
vt 0.892732 0.864983
vt 0.802739 0.810460
vt 0.722035 0.763545
vt 0.201661 0.924937
vt 0.176464 0.968580
vt 0.132821 0.993777
vt 0.082426 0.993777
vt 0.176464 0.830899
vt 0.201661 0.874542
vt 0.132821 0.805702
vt 0.038783 0.830899
vt 0.038783 0.968580
vt 0.013585 0.874542
vt 0.013585 0.924937
vt 0.082426 0.805702
vt 0.081570 0.803460
vt 0.174320 0.828312
vt 0.131275 0.803460
vt 0.131274 0.988961
vt 0.199172 0.871358
vt 0.199172 0.921063
vt 0.038524 0.964109
vt 0.081569 0.988961
vt 0.013671 0.921063
vt 0.013672 0.871358
vt 0.854585 0.810050
vt 0.773881 0.856966
vt 0.735109 0.824767
vt 0.683888 0.911489
vt 0.619868 0.850261
vt 0.516927 0.691595
vt 0.643012 0.690965
vt 0.546347 0.634437
vt 0.732910 0.453613
vt 0.770996 0.459473
vt 0.770996 0.451660
vt 0.732910 0.459473
vt 0.732910 0.465820
vt 0.770996 0.467285
vt 0.199172 0.921063
vt 0.174320 0.964109
vt 0.131274 0.988961
vt 0.199172 0.921063
vt 0.199172 0.871358
vt 0.131274 0.988961
vt 0.174320 0.828312
vt 0.081570 0.803460
vt 0.038524 0.964109
vt 0.013671 0.921063
vt 0.013672 0.871358
vt 0.131275 0.803460
vt 0.081569 0.988961
vt 0.019885 0.158691
vt 0.118945 0.057617
vt 0.118945 0.164551
vt 0.221729 0.054199
vt 0.221729 0.005371
vt 0.118823 0.005859
vt 0.019885 0.063477
vt 0.019885 0.007812
vt 0.221729 0.170898
vt 0.019867 0.005371
vt 0.122620 0.057617
vt 0.019852 0.054199
vt 0.122620 0.164551
vt 0.221680 0.158691
vt 0.221680 0.063477
vt 0.122742 0.005859
vt 0.221802 0.007812
vt 0.019852 0.170898
vt 0.199172 0.871358
vt 0.131274 0.988961
vt 0.174320 0.828312
vt 0.081570 0.803460
vt 0.038524 0.964109
vt 0.013671 0.921063
vt 0.013672 0.871358
vt 0.199172 0.921063
vt 0.131275 0.803460
vt 0.081569 0.988961
vt 0.013672 0.871358
vt 0.038524 0.828312
vt 0.081570 0.803460
vt 0.013585 0.874542
vt 0.013585 0.924937
vt 0.038783 0.968580
vt 0.082426 0.805702
vt 0.132821 0.993777
vt 0.201661 0.874542
vt 0.201661 0.924937
vt 0.176464 0.968580
vt 0.038783 0.830899
vt 0.082426 0.993777
vt 0.176464 0.830899
vt 0.132821 0.805702
vt 0.131275 0.803460
vt 0.174320 0.828312
vt 0.199172 0.871358
vt 0.013671 0.921063
vt 0.038524 0.964109
vt 0.081569 0.988961
vt 0.174320 0.964109
vt 0.174320 0.964109
vt 0.038524 0.828312
vt 0.038524 0.828312
vt 0.174320 0.964109
vt 0.038524 0.828312
s 1
usemtl Material.002
f 1/1/1 2/2/2 3/3/3
f 4/4/4 5/5/5 6/6/6
f 7/7/7 4/4/4 6/6/6
f 7/7/7 8/8/8 4/4/4
f 9/9/9 10/10/9 11/11/9
f 11/11/9 12/12/9 9/9/9
f 13/13/9 14/14/9 9/9/9
f 15/15/9 13/13/9 9/9/9
f 9/9/9 16/16/9 15/15/9
f 9/9/9 12/12/9 16/16/9
f 12/12/9 17/17/9 16/16/9
f 18/18/9 16/16/9 17/17/9
f 17/17/9 19/19/9 18/18/9
f 16/16/9 20/20/9 15/15/9
f 21/21/10 22/22/11 23/23/12
f 21/21/13 24/24/13 22/22/11
f 22/22/11 24/24/13 25/25/14
f 25/25/14 24/24/13 26/26/14
f 24/24/13 27/27/10 28/28/15
f 24/24/13 21/21/13 27/27/13
f 27/27/13 21/21/13 29/29/16
f 29/29/16 21/21/13 30/30/14
f 31/31/17 32/32/18 33/33/19
f 33/33/19 32/32/18 34/34/20
f 34/34/20 35/35/21 33/33/19
f 36/36/22 37/37/23 38/38/24
f 39/39/25 40/40/26 41/41/27
f 42/42/28 40/40/26 39/39/25
f 40/40/26 42/42/28 43/43/29
f 43/43/29 44/44/30 40/40/26
f 45/45/31 46/46/31 47/47/31
f 48/48/32 49/49/33 50/50/34
f 49/49/33 51/51/35 50/50/34
f 52/52/36 50/50/34 51/51/35
f 53/53/37 50/50/34 52/52/36
f 54/54/32 53/53/37 52/52/36
f 55/55/32 54/54/32 52/52/36
f 51/51/38 56/56/37 52/52/35
f 53/53/39 57/57/39 50/50/40
f 58/58/41 59/59/42 60/60/43
f 59/59/42 61/61/44 60/60/43
f 59/59/42 62/62/45 61/61/44
f 63/63/46 62/62/45 59/59/42
f 63/63/46 59/59/42 64/64/47
f 65/65/48 63/63/46 64/64/47
f 59/59/42 58/58/41 64/64/47
f 60/60/43 61/61/44 66/66/49
f 67/67/50 68/68/51 69/69/52
f 70/70/53 69/69/52 68/68/51
f 68/68/51 71/71/54 70/70/53
f 71/71/54 68/68/51 72/72/55
f 73/73/56 72/72/55 68/68/51
f 72/72/55 73/73/56 74/74/57
f 68/68/51 67/67/50 73/73/56
f 69/69/52 70/70/53 75/75/58
f 76/76/59 77/77/60 78/78/61
f 79/79/62 78/78/61 77/77/60
f 80/80/63 79/79/62 77/77/60
f 81/81/64 79/79/62 80/80/63
f 82/82/65 79/79/62 81/81/64
f 83/83/65 77/77/60 76/76/59
f 78/78/61 79/79/62 84/84/66
f 80/80/63 77/77/60 85/85/66
f 86/86/31 87/87/31 88/88/31
f 89/89/67 90/90/67 91/91/67
f 92/92/67 89/89/67 91/91/67
f 93/93/67 92/92/67 91/91/67
f 93/93/67 94/94/67 92/92/67
f 95/95/67 94/94/67 93/93/67
f 93/93/67 96/96/67 95/95/67
f 92/92/67 97/97/67 89/89/67
f 91/91/67 98/98/67 93/93/67
f 94/94/67 99/99/67 92/92/67
f 99/99/67 100/100/67 92/92/67
f 88/88/68 101/101/69 102/102/68
f 88/88/68 102/102/68 47/47/68
f 102/102/68 103/103/70 47/47/68
f 103/103/70 45/45/71 47/47/68
f 104/104/72 86/86/71 88/88/68
f 105/105/69 104/104/72 88/88/68
f 47/47/68 105/105/69 88/88/68
f 47/47/68 106/106/69 105/105/69
f 26/26/73 24/24/73 107/107/73
f 77/77/74 83/83/74 108/108/74
f 30/30/73 21/21/73 109/109/73
f 79/79/74 82/82/74 110/110/74
f 50/50/75 111/111/75 48/48/75
f 52/52/75 112/112/75 55/55/75
